# xmcd
#
# Track frame offsets:
#	150
#	17947
#	35319
#	47839
#	73669
#	88742
#	103570
#	118123
#	133448
#	150296
#	167208
#	180799
#
# Disc length: 2642 seconds
# Revision: 1
# Processed by: cddbd v1.5.2PL0 Copyright (c) Steve Scherf et al.
# Submitted via: dBpowerAMP V12.0
#
DISCID=9b0a500c
DTITLE=The Stone Cold Roosters - Back In The Bog
DYEAR=2013
DGENRE=Americana
TTITLE0=Anytime Anyplace
TTITLE1=Back in the Bog
TTITLE2=Bullmoose Breakdown
TTITLE3=Forget about the South
TTITLE4=In Your Sleep
TTITLE5=It Ain't You, It's Me
TTITLE6=Last Call
TTITLE7=Living in a Country Song
TTITLE8=Pullet Polka
TTITLE9=She's Only Happy with Me
TTITLE10=Velvet Elvis
TTITLE11=You'll Still Be Mine
EXTD=
EXTT0=
EXTT1=
EXTT2=
EXTT3=
EXTT4=
EXTT5=
EXTT6=
EXTT7=
EXTT8=
EXTT9=
EXTT10=
EXTT11=
PLAYORDER=
